HIERARCHY
ROOT Hips
{
	OFFSET 0.00000 0.00000 0.00000
	CHANNELS 6 Xposition Yposition Zposition Zrotation Yrotation Xrotation 
	JOINT LHipJoint
	{
		OFFSET 0 0 0
		CHANNELS 3 Zrotation Yrotation Xrotation
		JOINT LeftUpLeg
		{
			OFFSET 1.37590 -1.78394 0.89329
			CHANNELS 3 Zrotation Yrotation Xrotation
			JOINT LeftLeg
			{
				OFFSET 2.47928 -6.81178 0.00000
				CHANNELS 3 Zrotation Yrotation Xrotation
				JOINT LeftFoot
				{
					OFFSET 2.63345 -7.23535 0.00000
					CHANNELS 3 Zrotation Yrotation Xrotation
					JOINT LeftToeBase
					{
						OFFSET 0.23938 -0.65768 2.27012
						CHANNELS 3 Zrotation Yrotation Xrotation
						End Site
						{
							OFFSET 0.00000 -0.00000 1.18363
						}
					}
				}
			}
		}
	}
	JOINT RHipJoint
	{
		OFFSET 0 0 0
		CHANNELS 3 Zrotation Yrotation Xrotation
		JOINT RightUpLeg
		{
			OFFSET -1.33617 -1.78394 0.89329
			CHANNELS 3 Zrotation Yrotation Xrotation
			JOINT RightLeg
			{
				OFFSET -2.56922 -7.05888 0.00000
				CHANNELS 3 Zrotation Yrotation Xrotation
				JOINT RightFoot
				{
					OFFSET -2.56568 -7.04915 0.00000
					CHANNELS 3 Zrotation Yrotation Xrotation
					JOINT RightToeBase
					{
						OFFSET -0.27533 -0.75646 2.18105
						CHANNELS 3 Zrotation Yrotation Xrotation
						End Site
						{
							OFFSET -0.00000 -0.00000 1.15233
						}
					}
				}
			}
		}
	}
	JOINT LowerBack
	{
		OFFSET 0 0 0
		CHANNELS 3 Zrotation Yrotation Xrotation
		JOINT Spine
		{
			OFFSET 0.06190 2.15152 -0.00935
			CHANNELS 3 Zrotation Yrotation Xrotation
			JOINT Spine1
			{
				OFFSET 0.06334 2.15332 0.00872
				CHANNELS 3 Zrotation Yrotation Xrotation
				JOINT Neck
				{
					OFFSET 0 0 0
					CHANNELS 3 Zrotation Yrotation Xrotation
					JOINT Neck1
					{
						OFFSET -0.04202 1.66908 0.23524
						CHANNELS 3 Zrotation Yrotation Xrotation
						JOINT Head
						{
							OFFSET 0.07510 1.69357 -0.24440
							CHANNELS 3 Zrotation Yrotation Xrotation
							End Site
							{
								OFFSET 0.02556 1.71719 -0.11000
							}
						}
					}
				}
				JOINT LeftShoulder
				{
					OFFSET 0 0 0
					CHANNELS 3 Zrotation Yrotation Xrotation
					JOINT LeftArm
					{
						OFFSET 3.67168 1.26306 -0.41342
						CHANNELS 3 Zrotation Yrotation Xrotation
						JOINT LeftForeArm
						{
							OFFSET 4.68510 -0.00000 -0.00000
							CHANNELS 3 Zrotation Yrotation Xrotation
							JOINT LeftHand
							{
								OFFSET 3.39626 -0.00000 -0.00000
								CHANNELS 3 Zrotation Yrotation Xrotation
								JOINT LeftFingerBase
								{
									OFFSET 0 0 0
									CHANNELS 3 Zrotation Yrotation Xrotation
									JOINT LeftHandIndex1
									{
										OFFSET 0.48608 -0.00000 -0.00000
										CHANNELS 3 Zrotation Yrotation Xrotation
										End Site
										{
											OFFSET 0.39189 -0.00000 -0.00000
										}
									}
								}
								JOINT LThumb
								{
									OFFSET 0 0 0
									CHANNELS 3 Zrotation Yrotation Xrotation
									End Site
									{
										OFFSET 0.39787 -0.00000 0.39787
									}
								}
							}
						}
					}
				}
				JOINT RightShoulder
				{
					OFFSET 0 0 0
					CHANNELS 3 Zrotation Yrotation Xrotation
					JOINT RightArm
					{
						OFFSET -3.04136 1.42992 -0.76390
						CHANNELS 3 Zrotation Yrotation Xrotation
						JOINT RightForeArm
						{
							OFFSET -5.55576 -0.00000 -0.00000
							CHANNELS 3 Zrotation Yrotation Xrotation
							JOINT RightHand
							{
								OFFSET -3.32774 -0.00000 -0.00000
								CHANNELS 3 Zrotation Yrotation Xrotation
								JOINT RightFingerBase
								{
									OFFSET 0 0 0
									CHANNELS 3 Zrotation Yrotation Xrotation
									JOINT RightHandIndex1
									{
										OFFSET -0.50763 -0.00000 -0.00000
										CHANNELS 3 Zrotation Yrotation Xrotation
										End Site
										{
											OFFSET -0.40926 -0.00000 -0.00000
										}
									}
								}
								JOINT RThumb
								{
									OFFSET 0 0 0
									CHANNELS 3 Zrotation Yrotation Xrotation
									End Site
									{
										OFFSET -0.41551 -0.00000 0.41551
									}
								}
							}
						}
					}
				}
			}
		}
	}
}
MOTION
Frames: 9
Frame Time: .0083333
3.1269 18.0762 4.6809 310.9220 -77.9126 -304.7790 0.0000 0.0000 0.0000 -3.6353 -10.8790 -31.1227 8.7168 16.6220 55.1056 0.1770 -1.5109 -7.5616 0.7902 -5.6747 -15.8433 0.0000 0.0000 0.0000 33.5601 6.0076 -3.3652 -0.5217 -4.6289 12.8530 -0.0182 -10.1623 -14.7614 -0.4531 -4.3182 11.9737 6.7606 0.9873 0.3602 3.7397 1.3335 -1.0153 0.0488 0.5813 -1.1824 -9.5124 -7.3553 -14.0343 3.8843 -8.6025 11.7278 1.9029 -4.2933 6.4443 -0.0000 0.0000 0.0000 -89.1560 25.3566 -15.7452 10.8664 -18.0831 -1.7342 -0.0000 -0.0000 26.1563 3.9051 19.0189 1.2744 -7.1250 0.0000 -0.0000 -23.1864 47.6060 -1.5714 -0.0000 0.0000 0.0000 84.4915 -21.3649 -13.9195 -7.8704 13.3426 -0.9220 0.0000 0.0000 20.9214 -7.8045 -28.2083 3.7069 7.1250 -0.0000 -0.0000 24.7422 -56.6434 -7.3742
2.9898 18.0644 4.6796 310.4030 -77.9179 -304.2030 0.0000 0.0000 0.0000 -3.3867 -10.8820 -31.8178 8.2582 16.3059 53.4873 0.1963 -1.2719 -8.0181 0.8004 -5.7103 -15.9461 0.0000 0.0000 0.0000 33.7833 5.9312 -2.8701 -0.5158 -4.6033 12.7805 -0.0466 -10.1135 -15.1306 -0.4324 -4.2199 11.6960 6.9062 1.0450 0.3963 3.6977 1.4133 -0.9895 -0.0762 0.6203 -1.1679 -9.5396 -7.3747 -14.0119 3.9111 -8.6285 11.6926 1.9138 -4.3048 6.4335 0.0000 -0.0000 0.0000 -89.2203 25.2731 -15.4617 11.1170 -18.4674 -1.8128 -0.0000 -0.0000 25.1882 4.8287 18.9135 1.5685 -7.1250 0.0000 -0.0000 -22.3100 47.6339 -1.5220 0.0000 -0.0000 0.0000 84.4008 -21.2178 -14.2272 -7.8569 13.3207 -0.9189 0.0000 0.0000 21.1599 -7.6602 -28.0562 3.6197 7.1250 -0.0000 -0.0000 24.7766 -56.4770 -7.2834
2.8533 18.0513 4.6789 309.8610 -77.9520 -303.5790 0.0000 0.0000 0.0000 -3.1549 -10.8826 -32.4495 7.7642 15.9431 51.7090 0.2129 -1.0277 -8.4128 0.8147 -5.7596 -16.0885 0.0000 0.0000 0.0000 33.9660 5.8540 -2.4350 -0.5139 -4.5948 12.7563 -0.0791 -10.0190 -15.4886 -0.4108 -4.1146 11.3992 7.0256 1.1066 0.4203 3.6527 1.4979 -0.9753 -0.1896 0.6618 -1.1584 -9.5743 -7.3867 -13.9746 3.9367 -8.6438 11.6448 1.9274 -4.3118 6.4157 -0.0000 0.0000 0.0000 -89.2980 25.1378 -15.2091 11.3464 -18.8172 -1.8861 -0.0000 -0.0000 24.3586 5.8209 18.8722 1.8886 -7.1250 0.0000 -0.0000 -21.3972 47.7303 -1.5068 -0.0000 0.0000 0.0000 84.2984 -21.0283 -14.4145 -7.8478 13.3059 -0.9168 0.0000 0.0000 21.3382 -7.5713 -27.9283 3.5623 7.1250 -0.0000 -0.0000 24.7738 -56.3437 -7.2008
2.7174 18.0370 4.6789 309.2720 -78.0108 -302.8850 0.0000 0.0000 0.0000 -2.9333 -10.8845 -33.0136 7.2394 15.5302 49.7739 0.2255 -0.7658 -8.7309 0.8344 -5.8273 -16.2843 0.0000 0.0000 0.0000 34.1141 5.7781 -2.0576 -0.5156 -4.6023 12.7775 -0.1148 -9.8829 -15.8258 -0.3863 -3.9912 11.0520 7.1253 1.1717 0.4346 3.6062 1.5870 -0.9739 -0.2937 0.7053 -1.1563 -9.6151 -7.3907 -13.9272 3.9586 -8.6475 11.5904 1.9424 -4.3138 6.3934 -0.0000 -0.0000 0.0000 -89.3861 24.9552 -14.9708 11.5538 -19.1322 -1.9536 -0.0000 -0.0000 23.6522 6.8452 18.8925 2.2259 -7.1250 0.0000 -0.0000 -20.4776 47.8893 -1.5199 -0.0000 -0.0000 0.0000 84.1839 -20.8016 -14.4607 -7.8455 13.3021 -0.9163 0.0000 0.0000 21.4474 -7.5406 -27.8332 3.5367 7.1250 -0.0000 -0.0000 24.7373 -56.2517 -7.1329
2.5817 18.0216 4.6795 308.6240 -78.0911 -302.1120 0.0000 0.0000 0.0000 -2.7170 -10.8887 -33.4996 6.6860 15.0617 47.6765 0.2330 -0.4879 -8.9573 0.8604 -5.9150 -16.5379 0.0000 0.0000 0.0000 34.2366 5.7190 -1.7264 -0.5211 -4.6262 12.8455 -0.1519 -9.7294 -16.1534 -0.3582 -3.8451 10.6413 7.2049 1.2393 0.4377 3.5612 1.6787 -0.9804 -0.3851 0.7502 -1.1561 -9.6631 -7.3861 -13.8748 3.9752 -8.6378 11.5308 1.9586 -4.3101 6.3678 0.0000 -0.0000 0.0000 -89.4815 24.7255 -14.7318 11.7370 -19.4091 -2.0141 -0.0000 -0.0000 23.0475 7.8780 18.9226 2.5693 -7.1250 0.0000 -0.0000 -19.5496 48.0601 -1.5308 0.0000 -0.0000 0.0000 84.0527 -20.5149 -14.4247 -7.8387 13.2911 -0.9147 0.0000 0.0000 21.5566 -7.5721 -27.7595 3.5429 7.1250 -0.0000 -0.0000 24.6548 -56.1915 -7.0703
2.4462 18.0051 4.6805 307.8890 -78.1880 -301.2370 0.0000 0.0000 0.0000 -2.4976 -10.8962 -33.9017 6.1100 14.5341 45.4218 0.2342 -0.1778 -9.0792 0.8921 -6.0203 -16.8432 0.0000 0.0000 0.0000 34.3431 5.6763 -1.4244 -0.5288 -4.6599 12.9412 -0.1901 -9.5598 -16.4655 -0.3275 -3.6783 10.1732 7.2713 1.3117 0.4357 3.5163 1.7771 -0.9998 -0.4690 0.7980 -1.1660 -9.7087 -7.3744 -13.8071 3.9817 -8.6191 11.4687 1.9727 -4.3030 6.3378 -0.0000 0.0000 0.0000 -89.5761 24.4552 -14.4875 11.8956 -19.6478 -2.0670 -0.0000 -0.0000 22.5463 8.8864 18.9944 2.9132 -7.1250 0.0000 -0.0000 -18.6558 48.2687 -1.5547 -0.0000 0.0000 0.0000 83.9104 -20.1876 -14.2664 -7.8333 13.2823 -0.9135 0.0000 0.0000 21.6320 -7.6532 -27.7127 3.5757 7.1250 -0.0000 -0.0000 24.5425 -56.1655 -7.0193
2.3104 17.9876 4.6821 307.0490 -78.2969 -300.2450 0.0000 0.0000 0.0000 -2.2704 -10.9083 -34.2063 5.5152 13.9415 43.0034 0.2271 0.1812 -9.0692 0.9282 -6.1377 -17.1844 0.0000 0.0000 0.0000 34.4405 5.6477 -1.1433 -0.5389 -4.7035 13.0647 -0.2291 -9.3757 -16.7657 -0.2945 -3.4897 9.6453 7.3276 1.3883 0.4230 3.4739 1.8800 -1.0223 -0.5445 0.8481 -1.1727 -9.7450 -7.3558 -13.7337 3.9728 -8.5912 11.4014 1.9818 -4.2922 6.3034 0.0000 -0.0000 0.0000 -89.6691 24.1321 -14.2488 12.0269 -19.8450 -2.1114 -0.0000 -0.0000 22.1413 9.8408 19.0766 3.2448 -7.1250 0.0000 -0.0000 -17.8103 48.4820 -1.5760 0.0000 -0.0000 0.0000 83.7520 -19.7955 -14.0131 -7.8209 13.2622 -0.9106 0.0000 0.0000 21.7142 -7.7884 -27.6764 3.6351 7.1250 -0.0000 -0.0000 24.3840 -56.1597 -6.9666
2.1741 17.9690 4.6841 306.0800 -78.4084 -299.1210 0.0000 0.0000 0.0000 -2.0229 -10.9278 -34.4045 4.9080 13.2794 40.4237 0.2111 0.6124 -8.9226 0.9685 -6.2656 -17.5571 0.0000 0.0000 0.0000 34.5431 5.6346 -0.8660 -0.5503 -4.7524 13.2036 -0.2688 -9.1846 -17.0595 -0.2612 -3.2879 9.0814 7.3811 1.4704 0.4030 3.4350 1.9895 -1.0506 -0.6149 0.9013 -1.1808 -9.7686 -7.3317 -13.6481 3.9495 -8.5577 11.3335 1.9853 -4.2795 6.2651 -0.0000 -0.0000 0.0000 -89.7525 23.7762 -13.9832 12.1378 -20.0110 -2.1492 -0.0000 -0.0000 21.7897 10.7121 19.1688 3.5543 -7.1250 0.0000 -0.0000 -17.0408 48.6950 -1.5957 -0.0000 -0.0000 0.0000 83.5867 -19.3528 -13.6660 -7.8052 13.2367 -0.9070 0.0000 0.0000 21.8091 -7.9589 -27.6418 3.7112 7.1250 -0.0000 -0.0000 24.1922 -56.1626 -6.9088
2.0370 17.9492 4.6866 304.9870 -78.5195 -297.8720 0.0000 0.0000 0.0000 -1.7534 -10.9653 -34.4875 4.2964 12.5447 37.6871 0.1861 1.1279 -8.6422 1.0138 -6.4061 -17.9675 0.0000 0.0000 0.0000 34.6499 5.6245 -0.5837 -0.5622 -4.8025 13.3460 -0.3085 -8.9868 -17.3412 -0.2271 -3.0676 8.4671 7.4326 1.5547 0.3767 3.4002 2.1016 -1.0834 -0.6796 0.9556 -1.1897 -9.7777 -7.3005 -13.5504 3.9109 -8.5167 11.2648 1.9830 -4.2638 6.2228 0.0000 0.0000 0.0000 -89.8320 23.3838 -13.7280 12.2272 -20.1445 -2.1799 -0.0000 -0.0000 21.5087 11.4945 19.2666 3.8387 -7.1250 0.0000 -0.0000 -16.3516 48.9026 -1.6132 0.0000 0.0000 0.0000 83.4120 -18.8623 -13.1983 -7.7905 13.2127 -0.9036 0.0000 0.0000 21.8956 -8.1658 -27.6036 3.8039 7.1250 -0.0000 -0.0000 23.9617 -56.1693 -6.8414
